PathFileType	4	(X/Y/Z)	C:\Users\WrightLab\Desktop\Jo\P1_boxCal29.trc
DataRate	CameraRate	NumFrames	NumMarkers	Units	OrigDataRate	OrigDataStartFrame	OrigNumFrames
100.00	100.00	      13	19	mm	100.00	433	      1153
Frame#	Time	Headset_Front			Headset_Back			Headset_Left			Headset_Right			Left_Shoulder			Right_Shoulder			Sternum			C7			Left Elbow			Right Elbow			Left Wrist			Right Wrist			Left ASIS			Right ASIS			S2			Left Knee			Right Knee			Left Ankle			Right Ankle			
		X1	Y1	Z1	X2	Y2	Z2	X3	Y3	Z3	X4	Y4	Z4	X5	Y5	Z5	X6	Y6	Z6	X7	Y7	Z7	X8	Y8	Z8	X9	Y9	Z9	X10	Y10	Z10	X11	Y11	Z11	X12	Y12	Z12	X13	Y13	Z13	X14	Y14	Z14	X15	Y15	Z15	X16	Y16	Z16	X17	Y17	Z17	X18	Y18	Z18	X19	Y19	Z19	

433	4.320	-569.35724	1411.96228	750.99158	-728.74902	1522.65686	868.52875	-790.65063	1452.95837	727.96307	-633.25354	1366.74731	621.39948	-919.06952	1285.34607	847.86072	-538.09680	1267.24658	846.10498	-716.66779	1176.26367	717.05890	-737.92755	1287.53552	959.16571	-994.02515	967.14453	808.39990	-459.79776	1010.71460	932.53284	-936.56873	899.80206	585.37195	-353.45105	876.73950	739.54352	-837.93958	898.60321	710.26080	-639.10870	894.22504	693.95325	-713.20618	900.98987	1020.81256	-920.26654	446.52765	879.67035	-587.31281	471.80688	727.02094	-766.14319	192.33133	1167.31555	-841.15576	177.65436	1121.91650	
434	4.330	-568.30664	1411.41101	743.07922	-727.49219	1522.96167	860.63672	-789.49951	1453.87341	719.53564	-632.66089	1367.58911	612.65485	-918.86700	1285.91858	840.52277	-537.58716	1267.20093	835.74524	-715.52710	1175.32727	708.96912	-738.26349	1288.54688	951.35730	-995.39490	968.69727	801.39307	-460.36801	1011.10187	922.60767	-938.65344	900.18347	578.87268	-354.61765	876.40936	730.13580	-834.16132	899.62939	699.67651	-638.93164	894.95398	685.52496	-711.94263	900.73450	1012.08899	-925.12238	446.08823	859.37958	-585.60590	472.93478	721.42480	-771.57550	204.03551	1152.49194	-844.11047	188.26947	1113.84875	
435	4.340	-567.96606	1411.05457	735.60791	-726.64270	1523.42712	852.69366	-788.72546	1454.80444	711.27008	-632.28400	1367.34949	605.25787	-919.27405	1286.80212	833.17255	-538.33313	1268.63110	828.22205	-717.61743	1177.11243	701.68756				-996.04431	969.57025	794.22510	-458.58313	1012.01593	913.67761	-940.91791	900.77502	571.44019	-354.44043	876.46265	721.35559	-834.61133	899.65747	693.52606	-638.60797	895.98206	676.68134	-711.57465	900.98901	1004.81055	-931.08124	446.69833	838.99841	-582.69598	473.09271	714.17035	-776.68329	214.88425	1133.94897	-849.99268	196.73177	1098.87646	
436	4.350	-567.61475	1410.73291	726.94757	-726.33966	1524.07776	844.80048	-788.24139	1455.78308	703.24689	-631.90576	1367.36328	596.40314	-919.53070	1287.27209	826.04230	-539.16626	1269.41028	818.42151	-718.14301	1176.77283	693.80078	-737.38855	1289.58484	935.53796	-997.44940	970.21600	787.24030	-458.21964	1013.10535	905.74213	-943.08417	901.47510	563.93616	-355.07117	876.45056	711.79572	-834.55524	899.50250	687.70355	-637.58240	896.59967	668.88318	-710.42743	900.32068	997.08252	-936.86572	447.83496	819.22900	-580.34674	473.78500	708.34253	-783.39227	226.33749	1117.41699	-854.33203	204.04243	1082.44165	
437	4.360	-567.39099	1410.15027	720.74585	-725.73499	1524.84326	836.76556	-787.63879	1456.63623	695.03076	-631.65625	1367.14880	589.05994	-921.34143	1288.44910	819.38007	-538.98938	1269.82080	811.48492	-719.08716	1177.12708	686.31006	-738.36255	1290.91541	928.01801	-998.80981	970.94647	780.46753	-457.72540	1013.59900	896.32349	-945.69263	902.34717	556.99536	-355.12674	876.88922	702.77100	-834.66241	899.40649	680.94073	-636.39270	896.54791	660.88586	-709.39935	899.95288	989.61365	-941.38025	449.40714	802.14490	-577.01593	474.53207	703.13879	-788.66675	236.23578	1097.15515	-858.95428	207.05521	1060.53784	
438	4.370	-567.21918	1409.15576	713.35767	-724.44122	1524.96228	828.36487	-787.29742	1457.41223	687.02039	-631.33728	1367.02966	582.12158	-920.36719	1288.17200	811.77771	-539.86780	1270.23743	801.58997	-719.28119	1177.50745	677.88239	-737.41394	1290.92041	920.14874	-999.12903	971.20398	773.31116	-456.63681	1014.82080	886.15979	-948.09149	903.01007	549.76648	-354.81543	877.71863	693.32513	-834.77252	899.29474	673.31311	-636.20044	896.86536	653.70605	-709.12964	900.07458	981.51910	-945.26880	452.43997	783.72198	-573.07697	473.90570	699.42407	-793.29913	241.64149	1077.83069	-864.62659	212.31227	1042.07813	
439	4.380	-567.46295	1409.01587	704.74457	-725.08356	1526.23975	820.41736	-786.78546	1458.14380	678.57684	-631.33801	1366.18286	575.04633	-920.81769	1288.34460	804.89166	-540.34631	1271.50537	792.91949	-719.46179	1175.82764	670.82269	-737.53461	1291.17810	912.55737	-1000.96423	971.72467	766.69763	-456.02017	1015.26306	877.79480	-950.50049	903.76080	542.70898	-356.00275	878.46417	684.35028	-833.62537	899.29205	666.35486	-635.31433	896.92188	646.32568	-709.54755	900.35577	975.10608	-948.14056	456.03091	765.96790	-570.17981	472.71841	696.84143	-795.69312	244.63036	1062.45239	-869.45062	215.92580	1021.04108	
440	4.390	-567.07678	1408.11926	697.01563	-724.35553	1526.71252	811.98608	-786.64240	1458.74768	670.29675	-631.48901	1365.00110	567.45575	-921.55231	1288.67078	797.97186	-541.03717	1272.02905	785.55103	-721.00189	1176.74780	663.65717	-736.83917	1291.47571	904.61389	-1001.24988	971.69263	760.04987	-455.14899	1017.21936	869.10236	-952.89899	904.48645	535.78198	-355.62378	879.56812	674.73657	-833.78754	898.06732	660.42651	-633.93280	897.58838	639.21454	-709.64801	901.17621	968.56274	-950.96838	459.28754	748.90527	-568.58661	470.54248	695.35938	-798.58862	243.53604	1045.30249	-872.99817	219.13429	1004.81647	
441	4.400	-567.70459	1407.54797	689.91504	-724.26624	1527.47498	803.68408	-786.42981	1459.44019	661.98340	-631.45142	1364.87146	559.48621	-922.20886	1288.98596	790.98633	-542.12366	1272.18774	774.35492	-723.23096	1178.45276	656.54169	-737.78894	1292.80249	897.14423	-1002.85107	972.73126	753.73340	-455.23679	1017.34192	858.80316	-955.19208	905.36285	528.24213	-356.41812	880.32349	665.01593	-833.05200	898.11926	651.68304	-632.83636	897.16125	632.46814	-710.55048	901.81818	961.77625	-953.92444	462.02014	732.37354	-567.98621	468.74857	697.38092	-802.04285	243.40710	1030.42883	-878.24017	220.36148	986.41559	
442	4.410	-568.03925	1407.15112	683.04150	-722.21741	1527.08398	794.39954	-786.53741	1459.91370	653.75128	-631.60199	1364.23401	551.37640	-922.73071	1289.06909	784.13306	-543.07916	1273.28796	768.76300	-722.08130	1176.96606	648.88776	-738.32159	1293.22620	889.81409	-1003.70709	972.73566	747.33313	-454.51425	1019.08984	850.79047	-957.56464	905.81537	521.33936	-356.43060	881.71027	656.59979	-833.63763	897.76147	645.69324	-631.82825	897.87579	625.91412	-711.75702	903.59576	955.68353	-955.22565	465.81149	714.89484	-566.69012	467.98331	697.10687	-805.49829	241.50525	1015.36987	-881.61688	221.58548	971.29553	
443	4.420	-568.55737	1406.53259	676.11212	-723.10333	1528.12561	786.38556	-786.79126	1460.08484	645.56604	-631.75073	1363.48804	546.03436	-923.77081	1289.39868	777.24316	-543.35620	1274.44617	761.49597	-725.16003	1178.73450	641.62390	-738.09381	1293.75012	881.94397	-1004.30164	972.88165	741.15051	-454.19855	1019.30273	842.30115	-959.65839	905.95178	516.01306	-357.41147	882.56201	647.31128	-832.32910	897.46619	637.45605	-632.00189	897.78571	618.31909	-712.40833	904.03864	947.77856	-956.46490	469.43280	698.92944	-566.03375	467.66013	696.89178	-808.71893	235.73499	995.29810	-886.79517	220.36182	951.90094	
444	4.430	-570.87390	1404.92981	663.49365	-723.23987	1528.84680	777.75427	-786.72180	1460.59937	637.04779	-631.99329	1362.53369	538.43335	-924.14587	1289.60974	770.25531	-544.07153	1275.22778	753.93707	-724.42731	1178.18726	634.47253	-739.62531	1295.00732	874.65424	-1005.52887	973.62958	734.71277	-454.40057	1020.67072	832.77661	-961.55029	906.02161	509.45517	-359.12946	883.69476	637.52209	-832.38623	898.01410	629.13049	-631.27606	898.99713	611.36115	-713.54779	905.40735	941.80737	-956.32220	473.80646	683.71259	-565.48834	467.00449	695.64215	-812.85455	231.82573	978.70789	-890.38232	218.15878	933.18915	
445	4.440	-569.46362	1406.60693	660.06342	-724.07257	1529.08081	769.67297	-787.12012	1460.86890	628.91132	-632.14813	1362.21252	530.40411	-924.98975	1289.77368	763.30023	-545.07068	1276.52502	746.09601	-726.19476	1179.51404	627.34021	-739.89551	1295.56787	867.06805	-1006.72131	974.12054	729.07092	-453.98615	1020.88940	824.41931	-963.84851	906.17462	503.72440	-358.73584	884.91284	629.48322	-832.40472	897.81738	621.72504	-630.22070	897.81842	606.81445	-714.22339	905.44373	935.25098	-957.01123	477.16830	669.60767	-565.05859	466.26663	695.22375	-816.10803	224.01128	958.92468	-895.73669	213.14684	910.40863	
